<svg width="24" height="25" viewBox="0 0 24 25" fill="none" xmlns="http://www.w3.org/2000/svg">
<path fill-rule="evenodd" clip-rule="evenodd" d="M11.9995 7.12646C13.0995 7.12646 13.9995 6.22646 13.9995 5.12646C13.9995 4.02646 13.0995 3.12646 11.9995 3.12646C10.8995 3.12646 9.99951 4.02646 9.99951 5.12646C9.99951 6.22646 10.8995 7.12646 11.9995 7.12646ZM13.9995 12.1265C13.9995 13.2265 13.0995 14.1265 11.9995 14.1265C10.8995 14.1265 9.99951 13.2265 9.99951 12.1265C9.99951 11.0265 10.8995 10.1265 11.9995 10.1265C13.0995 10.1265 13.9995 11.0265 13.9995 12.1265ZM9.99951 19.1265C9.99951 18.0265 10.8995 17.1265 11.9995 17.1265C13.0995 17.1265 13.9995 18.0265 13.9995 19.1265C13.9995 20.2265 13.0995 21.1265 11.9995 21.1265C10.8995 21.1265 9.99951 20.2265 9.99951 19.1265Z" fill="#576573"/>
</svg>
