<?xml version="1.0" encoding="UTF-8"?>
<svg viewBox="0 0 400 500" xmlns="http://www.w3.org/2000/svg" xmlns:xlink="http://www.w3.org/1999/xlink">
 <defs>
  <clipPath id="l">
   <path d="m75.2 372.5 70.569 27.5c6.8612 0 12.438-12.32 12.438-27.5s-5.5764-27.5-12.438-27.5l-70.569 27.5z"/>
  </clipPath>
  <clipPath id="k">
   <path d="m20.944 568.1c29.395-11.077 60.809-18.38 87.841-33.876l376.04-32.61c19.909 13.562 33.488 103.01 15.815 116.35l-391.3-20.053c-27.865-14.21-58.902-19.965-88.405-29.809z"/>
  </clipPath>
  <filter id="a">
   <feGaussianBlur stdDeviation=".35133"/>
  </filter>
  <filter id="j">
   <feGaussianBlur stdDeviation="3.31197"/>
  </filter>
  <linearGradient id="f">
   <stop stop-color="#fff" offset="0"/>
   <stop stop-color="#fff" stop-opacity="0" offset="1"/>
  </linearGradient>
  <linearGradient id="d">
   <stop stop-color="#383838" offset="0"/>
   <stop stop-color="#3b3b3b" offset=".05755"/>
   <stop stop-color="#626463" offset=".07978"/>
   <stop stop-color="#bfbfbf" offset=".1236"/>
   <stop stop-color="#808080" offset=".18899"/>
   <stop stop-color="#e0e0e0" offset=".25765"/>
   <stop stop-color="#ececec" offset=".37406"/>
   <stop stop-color="#828282" offset=".52577"/>
   <stop stop-color="#818181" offset=".57286"/>
   <stop stop-color="#acacac" offset=".67356"/>
   <stop stop-color="#bcbcbc" offset=".73765"/>
   <stop stop-color="#505050" offset=".86452"/>
   <stop stop-color="#333" offset=".90768"/>
   <stop stop-color="#7a7a7c" offset=".96261"/>
   <stop stop-color="#c9c6c1" offset="1"/>
  </linearGradient>
  <linearGradient id="e" x2="0" y1="442.77" y2="500.01" gradientUnits="userSpaceOnUse" xlink:href="#d"/>
  <linearGradient id="c" x2="0" y1="443.01" y2="502.35" gradientUnits="userSpaceOnUse" xlink:href="#d"/>
  <linearGradient id="i" x2="0" y1="443.51" y2="502.85" gradientUnits="userSpaceOnUse" xlink:href="#d"/>
  <linearGradient id="h" x2="0" y1="382.77" y2="440.01" gradientUnits="userSpaceOnUse" xlink:href="#d"/>
  <radialGradient id="b" cx="508.3" cy="471.4" r="7.1331" fx="506.25" fy="469.36" gradientTransform="matrix(1 0 0 3.9254 0 -1382.3)" gradientUnits="userSpaceOnUse" xlink:href="#f"/>
  <radialGradient id="g" cx="508.3" cy="471.4" r="7.1331" fx="506.25" fy="469.36" gradientTransform="matrix(1 0 0 3.9254 22.461 -1381.8)" gradientUnits="userSpaceOnUse" xlink:href="#f"/>
 </defs>
 <path transform="matrix(.78636 -.63775 .67034 .88655 -388.33 3.8658)" d="m20.944 568.1 89.694-27.949 372.42 1e-5c19.909 13.562 18.454 41.66 0.78124 55l-373-1e-5 -89.893-27.051z" clip-path="url(#k)" filter="url(#j)" opacity=".36905"/>
 <g transform="matrix(.71104 -1.0021 1.0021 .71104 -519.89 233.57)">
  <g transform="translate(-131.2)">
   <path d="m629.12 445v55h36.438c6.8612 0 16.734-12.32 16.734-27.5s-9.8733-27.5-16.734-27.5h-36.438z" fill="url(#e)"/>
   <path d="m629.12 445v55h36.438c6.8612 0 16.734-12.32 16.734-27.5s-9.8733-27.5-16.734-27.5h-36.438z" fill="#ef2929" opacity=".7"/>
  </g>
  <path d="m425.75 445v55h91.308c6.8612 0 12.438-12.32 12.438-27.5s-5.5763-27.5-12.438-27.5h-91.308z" fill="url(#e)"/>
  <g transform="translate(-51.562)">
   <path d="m495.3 444.5c-0.2488 0.02689-1.2698 0.24979-1.2661 0.5 6.8471 0.03651 12.406 12.343 12.406 27.5s-5.5591 27.463-12.406 27.5c-0.00102 0.11457 0.87966 0.23852 0.98489 0.34375s0.22917 0.15727 0.34375 0.15625c1.8581 0 3.6056-0.86135 5.1562-2.3125s2.9181-3.5016 4.0625-6.0312c2.2896-5.0612 3.7187-12.007 3.7188-19.656s-1.4292-14.595-3.7188-19.656c-1.1444-2.5297-2.5101-4.5784-4.0625-6.0312s-3.2981-2.3125-5.1562-2.3125h-0.0625z" filter="url(#a)"/>
   <path d="m495.4 444.5c-0.2488 0.02689-1.2698 0.24979-1.2661 0.5 6.8471 0.03651 12.406 12.343 12.406 27.5s-5.5591 27.463-12.406 27.5c-0.00102 0.11457 0.87966 0.23852 0.98489 0.34375s0.22917 0.15727 0.34375 0.15625c1.8581 0 3.6056-0.86135 5.1562-2.3125s2.9181-3.5016 4.0625-6.0312c2.2896-5.0612 3.7187-12.007 3.7188-19.656s-1.4292-14.595-3.7188-19.656c-1.1444-2.5297-2.5101-4.5784-4.0625-6.0312s-3.2981-2.3125-5.1562-2.3125h-0.0625z" fill="url(#c)"/>
   <path d="m495.3 444.5c-0.2488 0.02689-1.2698 0.24979-1.2661 0.5 6.8471 0.03651 12.406 12.343 12.406 27.5s-5.5591 27.463-12.406 27.5c-0.00102 0.11457 0.87966 0.23852 0.98489 0.34375s0.22917 0.15727 0.34375 0.15625c1.8581 0 3.6056-0.86135 5.1562-2.3125s2.9181-3.5016 4.0625-6.0312c2.2896-5.0612 3.7187-12.007 3.7188-19.656s-1.4292-14.595-3.7188-19.656c-1.1444-2.5297-2.5101-4.5784-4.0625-6.0312s-3.2981-2.3125-5.1562-2.3125h-0.0625z" fill="url(#b)"/>
  </g>
  <g transform="translate(-36.612)">
   <path d="m495.3 444.5c-0.2488 0.02689-1.2698 0.24979-1.2661 0.5 6.8471 0.03651 12.406 12.343 12.406 27.5s-5.5591 27.463-12.406 27.5c-0.00102 0.11457 0.87966 0.23852 0.98489 0.34375s0.22917 0.15727 0.34375 0.15625c1.8581 0 3.6056-0.86135 5.1562-2.3125s2.9181-3.5016 4.0625-6.0312c2.2896-5.0612 3.7187-12.007 3.7188-19.656s-1.4292-14.595-3.7188-19.656c-1.1444-2.5297-2.5101-4.5784-4.0625-6.0312s-3.2981-2.3125-5.1562-2.3125h-0.0625z" filter="url(#a)"/>
   <path d="m495.4 444.5c-0.2488 0.02689-1.2698 0.24979-1.2661 0.5 6.8471 0.03651 12.406 12.343 12.406 27.5s-5.5591 27.463-12.406 27.5c-0.00102 0.11457 0.87966 0.23852 0.98489 0.34375s0.22917 0.15727 0.34375 0.15625c1.8581 0 3.6056-0.86135 5.1562-2.3125s2.9181-3.5016 4.0625-6.0312c2.2896-5.0612 3.7187-12.007 3.7188-19.656s-1.4292-14.595-3.7188-19.656c-1.1444-2.5297-2.5101-4.5784-4.0625-6.0312s-3.2981-2.3125-5.1562-2.3125h-0.0625z" fill="url(#c)"/>
   <path d="m495.3 444.5c-0.2488 0.02689-1.2698 0.24979-1.2661 0.5 6.8471 0.03651 12.406 12.343 12.406 27.5s-5.5591 27.463-12.406 27.5c-0.00102 0.11457 0.87966 0.23852 0.98489 0.34375s0.22917 0.15727 0.34375 0.15625c1.8581 0 3.6056-0.86135 5.1562-2.3125s2.9181-3.5016 4.0625-6.0312c2.2896-5.0612 3.7187-12.007 3.7188-19.656s-1.4292-14.595-3.7188-19.656c-1.1444-2.5297-2.5101-4.5784-4.0625-6.0312s-3.2981-2.3125-5.1562-2.3125h-0.0625z" fill="url(#b)"/>
  </g>
  <g transform="translate(-30.851)">
   <path d="m495.3 444.5c-0.2488 0.02689-1.2698 0.24979-1.2661 0.5 6.8471 0.03651 12.406 12.343 12.406 27.5s-5.5591 27.463-12.406 27.5c-0.00102 0.11457 0.87966 0.23852 0.98489 0.34375s0.22917 0.15727 0.34375 0.15625c1.8581 0 3.6056-0.86135 5.1562-2.3125s2.9181-3.5016 4.0625-6.0312c2.2896-5.0612 3.7187-12.007 3.7188-19.656s-1.4292-14.595-3.7188-19.656c-1.1444-2.5297-2.5101-4.5784-4.0625-6.0312s-3.2981-2.3125-5.1562-2.3125h-0.0625z" filter="url(#a)"/>
   <path d="m495.4 444.5c-0.2488 0.02689-1.2698 0.24979-1.2661 0.5 6.8471 0.03651 12.406 12.343 12.406 27.5s-5.5591 27.463-12.406 27.5c-0.00102 0.11457 0.87966 0.23852 0.98489 0.34375s0.22917 0.15727 0.34375 0.15625c1.8581 0 3.6056-0.86135 5.1562-2.3125s2.9181-3.5016 4.0625-6.0312c2.2896-5.0612 3.7187-12.007 3.7188-19.656s-1.4292-14.595-3.7188-19.656c-1.1444-2.5297-2.5101-4.5784-4.0625-6.0312s-3.2981-2.3125-5.1562-2.3125h-0.0625z" fill="url(#c)"/>
   <path d="m495.3 444.5c-0.2488 0.02689-1.2698 0.24979-1.2661 0.5 6.8471 0.03651 12.406 12.343 12.406 27.5s-5.5591 27.463-12.406 27.5c-0.00102 0.11457 0.87966 0.23852 0.98489 0.34375s0.22917 0.15727 0.34375 0.15625c1.8581 0 3.6056-0.86135 5.1562-2.3125s2.9181-3.5016 4.0625-6.0312c2.2896-5.0612 3.7187-12.007 3.7188-19.656s-1.4292-14.595-3.7188-19.656c-1.1444-2.5297-2.5101-4.5784-4.0625-6.0312s-3.2981-2.3125-5.1562-2.3125h-0.0625z" fill="url(#b)"/>
  </g>
  <g transform="translate(-25.089)">
   <path d="m495.3 444.5c-0.2488 0.02689-1.2698 0.24979-1.2661 0.5 6.8471 0.03651 12.406 12.343 12.406 27.5s-5.5591 27.463-12.406 27.5c-0.00102 0.11457 0.87966 0.23852 0.98489 0.34375s0.22917 0.15727 0.34375 0.15625c1.8581 0 3.6056-0.86135 5.1562-2.3125s2.9181-3.5016 4.0625-6.0312c2.2896-5.0612 3.7187-12.007 3.7188-19.656s-1.4292-14.595-3.7188-19.656c-1.1444-2.5297-2.5101-4.5784-4.0625-6.0312s-3.2981-2.3125-5.1562-2.3125h-0.0625z" filter="url(#a)"/>
   <path d="m495.4 444.5c-0.2488 0.02689-1.2698 0.24979-1.2661 0.5 6.8471 0.03651 12.406 12.343 12.406 27.5s-5.5591 27.463-12.406 27.5c-0.00102 0.11457 0.87966 0.23852 0.98489 0.34375s0.22917 0.15727 0.34375 0.15625c1.8581 0 3.6056-0.86135 5.1562-2.3125s2.9181-3.5016 4.0625-6.0312c2.2896-5.0612 3.7187-12.007 3.7188-19.656s-1.4292-14.595-3.7188-19.656c-1.1444-2.5297-2.5101-4.5784-4.0625-6.0312s-3.2981-2.3125-5.1562-2.3125h-0.0625z" fill="url(#c)"/>
   <path d="m495.3 444.5c-0.2488 0.02689-1.2698 0.24979-1.2661 0.5 6.8471 0.03651 12.406 12.343 12.406 27.5s-5.5591 27.463-12.406 27.5c-0.00102 0.11457 0.87966 0.23852 0.98489 0.34375s0.22917 0.15727 0.34375 0.15625c1.8581 0 3.6056-0.86135 5.1562-2.3125s2.9181-3.5016 4.0625-6.0312c2.2896-5.0612 3.7187-12.007 3.7188-19.656s-1.4292-14.595-3.7188-19.656c-1.1444-2.5297-2.5101-4.5784-4.0625-6.0312s-3.2981-2.3125-5.1562-2.3125h-0.0625z" fill="url(#b)"/>
  </g>
  <g transform="translate(-4.0193)">
   <path d="m495.3 444.5c-0.2488 0.02689-1.2698 0.24979-1.2661 0.5 6.8471 0.03651 12.406 12.343 12.406 27.5s-5.5591 27.463-12.406 27.5c-0.00102 0.11457 0.87966 0.23852 0.98489 0.34375s0.22917 0.15727 0.34375 0.15625c1.8581 0 3.6056-0.86135 5.1562-2.3125s2.9181-3.5016 4.0625-6.0312c2.2896-5.0612 3.7187-12.007 3.7188-19.656s-1.4292-14.595-3.7188-19.656c-1.1444-2.5297-2.5101-4.5784-4.0625-6.0312s-3.2981-2.3125-5.1562-2.3125h-0.0625z" filter="url(#a)"/>
   <path d="m495.4 444.5c-0.2488 0.02689-1.2698 0.24979-1.2661 0.5 6.8471 0.03651 12.406 12.343 12.406 27.5s-5.5591 27.463-12.406 27.5c-0.00102 0.11457 0.87966 0.23852 0.98489 0.34375s0.22917 0.15727 0.34375 0.15625c1.8581 0 3.6056-0.86135 5.1562-2.3125s2.9181-3.5016 4.0625-6.0312c2.2896-5.0612 3.7187-12.007 3.7188-19.656s-1.4292-14.595-3.7188-19.656c-1.1444-2.5297-2.5101-4.5784-4.0625-6.0312s-3.2981-2.3125-5.1562-2.3125h-0.0625z" fill="url(#c)"/>
   <path d="m495.3 444.5c-0.2488 0.02689-1.2698 0.24979-1.2661 0.5 6.8471 0.03651 12.406 12.343 12.406 27.5s-5.5591 27.463-12.406 27.5c-0.00102 0.11457 0.87966 0.23852 0.98489 0.34375s0.22917 0.15727 0.34375 0.15625c1.8581 0 3.6056-0.86135 5.1562-2.3125s2.9181-3.5016 4.0625-6.0312c2.2896-5.0612 3.7187-12.007 3.7188-19.656s-1.4292-14.595-3.7188-19.656c-1.1444-2.5297-2.5101-4.5784-4.0625-6.0312s-3.2981-2.3125-5.1562-2.3125h-0.0625z" fill="url(#b)"/>
  </g>
  <g transform="translate(1.7424)">
   <path d="m495.3 444.5c-0.2488 0.02689-1.2698 0.24979-1.2661 0.5 6.8471 0.03651 12.406 12.343 12.406 27.5s-5.5591 27.463-12.406 27.5c-0.00102 0.11457 0.87966 0.23852 0.98489 0.34375s0.22917 0.15727 0.34375 0.15625c1.8581 0 3.6056-0.86135 5.1562-2.3125s2.9181-3.5016 4.0625-6.0312c2.2896-5.0612 3.7187-12.007 3.7188-19.656s-1.4292-14.595-3.7188-19.656c-1.1444-2.5297-2.5101-4.5784-4.0625-6.0312s-3.2981-2.3125-5.1562-2.3125h-0.0625z" filter="url(#a)"/>
   <path d="m495.4 444.5c-0.2488 0.02689-1.2698 0.24979-1.2661 0.5 6.8471 0.03651 12.406 12.343 12.406 27.5s-5.5591 27.463-12.406 27.5c-0.00102 0.11457 0.87966 0.23852 0.98489 0.34375s0.22917 0.15727 0.34375 0.15625c1.8581 0 3.6056-0.86135 5.1562-2.3125s2.9181-3.5016 4.0625-6.0312c2.2896-5.0612 3.7187-12.007 3.7188-19.656s-1.4292-14.595-3.7188-19.656c-1.1444-2.5297-2.5101-4.5784-4.0625-6.0312s-3.2981-2.3125-5.1562-2.3125h-0.0625z" fill="url(#c)"/>
   <path d="m495.3 444.5c-0.2488 0.02689-1.2698 0.24979-1.2661 0.5 6.8471 0.03651 12.406 12.343 12.406 27.5s-5.5591 27.463-12.406 27.5c-0.00102 0.11457 0.87966 0.23852 0.98489 0.34375s0.22917 0.15727 0.34375 0.15625c1.8581 0 3.6056-0.86135 5.1562-2.3125s2.9181-3.5016 4.0625-6.0312c2.2896-5.0612 3.7187-12.007 3.7188-19.656s-1.4292-14.595-3.7188-19.656c-1.1444-2.5297-2.5101-4.5784-4.0625-6.0312s-3.2981-2.3125-5.1562-2.3125h-0.0625z" fill="url(#b)"/>
  </g>
  <g transform="translate(7.5042)">
   <path d="m495.3 444.5c-0.2488 0.02689-1.2698 0.24979-1.2661 0.5 6.8471 0.03651 12.406 12.343 12.406 27.5s-5.5591 27.463-12.406 27.5c-0.00102 0.11457 0.87966 0.23852 0.98489 0.34375s0.22917 0.15727 0.34375 0.15625c1.8581 0 3.6056-0.86135 5.1562-2.3125s2.9181-3.5016 4.0625-6.0312c2.2896-5.0612 3.7187-12.007 3.7188-19.656s-1.4292-14.595-3.7188-19.656c-1.1444-2.5297-2.5101-4.5784-4.0625-6.0312s-3.2981-2.3125-5.1562-2.3125h-0.0625z" filter="url(#a)"/>
   <path d="m495.4 444.5c-0.2488 0.02689-1.2698 0.24979-1.2661 0.5 6.8471 0.03651 12.406 12.343 12.406 27.5s-5.5591 27.463-12.406 27.5c-0.00102 0.11457 0.87966 0.23852 0.98489 0.34375s0.22917 0.15727 0.34375 0.15625c1.8581 0 3.6056-0.86135 5.1562-2.3125s2.9181-3.5016 4.0625-6.0312c2.2896-5.0612 3.7187-12.007 3.7188-19.656s-1.4292-14.595-3.7188-19.656c-1.1444-2.5297-2.5101-4.5784-4.0625-6.0312s-3.2981-2.3125-5.1562-2.3125h-0.0625z" fill="url(#c)"/>
   <path d="m495.3 444.5c-0.2488 0.02689-1.2698 0.24979-1.2661 0.5 6.8471 0.03651 12.406 12.343 12.406 27.5s-5.5591 27.463-12.406 27.5c-0.00102 0.11457 0.87966 0.23852 0.98489 0.34375s0.22917 0.15727 0.34375 0.15625c1.8581 0 3.6056-0.86135 5.1562-2.3125s2.9181-3.5016 4.0625-6.0312c2.2896-5.0612 3.7187-12.007 3.7188-19.656s-1.4292-14.595-3.7188-19.656c-1.1444-2.5297-2.5101-4.5784-4.0625-6.0312s-3.2981-2.3125-5.1562-2.3125h-0.0625z" fill="url(#b)"/>
  </g>
  <path d="m517.76 445c-0.2488 0.02689-1.2698 0.24979-1.2661 0.5 6.8471 0.03651 12.406 12.343 12.406 27.5s-5.5591 27.463-12.406 27.5c-0.00102 0.11457 0.87966 0.23852 0.98489 0.34375s0.22917 0.15727 0.34375 0.15625c1.8581 0 3.6056-0.86135 5.1562-2.3125s2.9181-3.5016 4.0625-6.0312c2.2896-5.0612 3.7187-12.007 3.7188-19.656s-1.4292-14.595-3.7188-19.656c-1.1444-2.5297-2.5101-4.5784-4.0625-6.0312s-3.2981-2.3125-5.1562-2.3125h-0.0625z" filter="url(#a)"/>
  <path d="m518.15 445c-0.2488 0.02689-1.2698 0.24979-1.2661 0.5 6.8471 0.03651 12.406 12.343 12.406 27.5s-5.5591 27.463-12.406 27.5c-0.00102 0.11457 0.87966 0.23852 0.98489 0.34375s0.22917 0.15727 0.34375 0.15625c1.8581 0 3.6056-0.86135 5.1562-2.3125s2.9181-3.5016 4.0625-6.0312c2.2896-5.0612 3.7187-12.007 3.7188-19.656s-1.4292-14.595-3.7188-19.656c-1.1444-2.5297-2.5101-4.5784-4.0625-6.0312s-3.2981-2.3125-5.1562-2.3125h-0.0625z" filter="url(#a)"/>
  <path d="m517.86 445c-0.2488 0.02689-1.2698 0.24979-1.2661 0.5 6.8471 0.03651 12.406 12.343 12.406 27.5s-5.5591 27.463-12.406 27.5c-0.00102 0.11457 0.87966 0.23852 0.98489 0.34375s0.22917 0.15727 0.34375 0.15625c1.8581 0 3.6056-0.86135 5.1562-2.3125s2.9181-3.5016 4.0625-6.0312c2.2896-5.0612 3.7187-12.007 3.7188-19.656s-1.4292-14.595-3.7188-19.656c-1.1444-2.5297-2.5101-4.5784-4.0625-6.0312s-3.2981-2.3125-5.1562-2.3125h-0.0625z" fill="url(#i)"/>
  <path d="m517.76 445c-0.2488 0.02689-1.2698 0.24979-1.2661 0.5 6.8471 0.03651 12.406 12.343 12.406 27.5s-5.5591 27.463-12.406 27.5c-0.00102 0.11457 0.87966 0.23852 0.98489 0.34375s0.22917 0.15727 0.34375 0.15625c1.8581 0 3.6056-0.86135 5.1562-2.3125s2.9181-3.5016 4.0625-6.0312c2.2896-5.0612 3.7187-12.007 3.7188-19.656s-1.4292-14.595-3.7188-19.656c-1.1444-2.5297-2.5101-4.5784-4.0625-6.0312s-3.2981-2.3125-5.1562-2.3125h-0.0625z" fill="url(#g)"/>
 </g>
 <g transform="matrix(.71104 -1.0021 1.0021 .71104 -459.76 276.24)">
  <path d="m165.19 385v55h277.84c6.8612 0 12.438-12.32 12.438-27.5s-5.5764-27.5-12.438-27.5h-277.84z" fill="url(#h)"/>
  <path d="m165.19 385v55h277.84c6.8612 0 12.438-12.32 12.438-27.5s-5.5764-27.5-12.438-27.5h-277.84z" fill="#8ae234" opacity=".7"/>
 </g>
 <g transform="matrix(.90508 -1.2756 1.0021 .71104 -552.57 279.63)">
  <path d="m93.983 472.5 70.569 27.5c6.8612 0 12.438-12.32 12.438-27.5s-5.5764-27.5-12.438-27.5l-70.569 27.5z" fill="url(#e)"/>
  <g transform="translate(18.783 100)" clip-path="url(#l)" fill="none" stroke-linecap="round" stroke-linejoin="round" stroke-width=".72133">
   <g transform="translate(0,-100)">
    <path d="m75.406 472.97 86.328 33.138" stroke="#8f5902"/>
    <path d="m75.406 472.96 86.547 32.36" stroke="#915a02"/>
    <path d="m75.405 472.95 86.767 31.581" stroke="#935c03"/>
    <path d="m75.404 472.95 86.986 30.802" stroke="#965e04"/>
    <path d="m75.403 472.94 87.206 30.023" stroke="#985f04"/>
    <path d="m75.402 472.94 87.425 29.244" stroke="#9a6105"/>
    <path d="m75.401 472.93 87.644 28.465" stroke="#9d6306"/>
    <path d="m75.4 472.92 87.864 27.686" stroke="#9f6507"/>
    <path d="m75.4 472.92 88.083 26.908" stroke="#a26607"/>
    <path d="m75.399 472.91 88.302 26.129" stroke="#a46808"/>
    <path d="m75.398 472.91 88.522 25.35" stroke="#a66a09"/>
    <path d="m75.397 472.9 88.741 24.571" stroke="#a96b09"/>
    <path d="m75.396 472.89 88.96 23.792" stroke="#ab6d0a"/>
    <path d="m75.395 472.89 89.18 23.013" stroke="#ad6f0b"/>
    <path d="m75.394 472.88 89.399 22.234" stroke="#b0710c"/>
    <path d="m75.393 472.87 89.618 21.456" stroke="#b2720c"/>
    <path d="m75.393 472.87 89.838 20.677" stroke="#b5740d"/>
    <path d="m75.392 472.86 90.057 19.898" stroke="#b7760e"/>
    <path d="m75.391 472.86 90.276 19.119" stroke="#b9770e"/>
    <path d="m75.39 472.85 90.496 18.34" stroke="#bc790f"/>
    <path d="m75.389 472.84 90.715 17.561" stroke="#be7b10"/>
    <path d="m75.388 472.84 90.934 16.782" stroke="#c17d11"/>
   </g>
   <g transform="translate(0,-100)">
    <path d="m75.388 472.84 90.934 16.782" stroke="#c17d11"/>
    <path d="m75.388 472.84 90.934 16.782" stroke="#c17d11"/>
    <path d="m75.386 472.83 91.008 15.994" stroke="#c27f15"/>
    <path d="m75.385 472.83 91.081 15.206" stroke="#c48219"/>
    <path d="m75.383 472.82 91.154 14.418" stroke="#c6851e"/>
    <path d="m75.381 472.81 91.227 13.63" stroke="#c88822"/>
    <path d="m75.379 472.81 91.3 12.842" stroke="#ca8b27"/>
    <path d="m75.377 472.8 91.373 12.054" stroke="#cc8e2b"/>
    <path d="m75.375 472.8 91.446 11.266" stroke="#ce9130"/>
    <path d="m75.373 472.79 91.519 10.478" stroke="#d09334"/>
    <path d="m75.371 472.79 91.592 9.6897" stroke="#d29638"/>
    <path d="m75.369 472.78 91.666 8.9017" stroke="#d4993d"/>
    <path d="m75.367 472.77 91.739 8.1136" stroke="#d59c41"/>
    <path d="m75.365 472.77 91.812 7.3255" stroke="#d79f46"/>
    <path d="m75.363 472.76 91.885 6.5374" stroke="#d9a24a"/>
    <path d="m75.362 472.76 91.958 5.7494" stroke="#dba54f"/>
    <path d="m75.36 472.75 92.031 4.9613" stroke="#dda753"/>
    <path d="m75.358 472.75 92.104 4.1732" stroke="#dfaa57"/>
    <path d="m75.356 472.74 92.177 3.3852" stroke="#e1ad5c"/>
    <path d="m75.354 472.73 92.25 2.5971" stroke="#e3b060"/>
    <path d="m75.352 472.73 92.324 1.809" stroke="#e5b365"/>
    <path d="m75.35 472.72 92.397 1.021" stroke="#e7b669"/>
    <path d="m75.348 472.72 92.47 0.2329" stroke="#e9b96e"/>
    <path d="m75.348 472.72 92.47 0.2329" stroke="#e9b96e"/>
   </g>
   <g transform="translate(0,-100)">
    <path d="m75.348 472.72 92.47 0.2329" stroke="#e9b96e"/>
    <path d="m75.348 472.72 92.47 0.2329" stroke="#e9b96e"/>
    <path d="m75.348 472.72 92.47 0.2329" stroke="#e9b96e"/>
    <path d="m75.345 472.71 92.381-0.65583" stroke="#e9bb74"/>
    <path d="m75.342 472.71 92.293-1.5446" stroke="#e9be7a"/>
    <path d="m75.338 472.7 92.205-2.4333" stroke="#e9c080"/>
    <path d="m75.335 472.69 92.116-3.322" stroke="#e9c386"/>
    <path d="m75.331 472.69 92.028-4.2108" stroke="#eac58c"/>
    <path d="m75.328 472.68 91.94-5.0995" stroke="#eac892"/>
    <path d="m75.325 472.68 91.851-5.9882" stroke="#eaca98"/>
    <path d="m75.321 472.67 91.763-6.877" stroke="#eacd9e"/>
    <path d="m75.318 472.66 91.675-7.7657" stroke="#ebcfa4"/>
    <path d="m75.315 472.66 91.586-8.6544" stroke="#ebd2aa"/>
    <path d="m75.311 472.65 91.498-9.5432" stroke="#ebd4b0"/>
    <path d="m75.308 472.65 91.41-10.432" stroke="#ebd7b6"/>
    <path d="m75.305 472.64 91.321-11.321" stroke="#ecd9bc"/>
    <path d="m75.301 472.63 91.233-12.209" stroke="#ecdcc2"/>
    <path d="m75.298 472.63 91.145-13.098" stroke="#ecdec8"/>
    <path d="m75.295 472.62 91.056-13.987" stroke="#ece1ce"/>
    <path d="m75.291 472.62 90.968-14.876" stroke="#ede3d4"/>
    <path d="m75.288 472.61 90.88-15.764" stroke="#ede6da"/>
    <path d="m75.285 472.6 90.791-16.653" stroke="#ede8e0"/>
    <path d="m75.281 472.6 90.703-17.542" stroke="#edebe6"/>
    <path d="m75.278 472.59 90.615-18.431" stroke="#eeeeec"/>
    <path d="m75.278 472.59 90.615-18.431" stroke="#eeeeec"/>
    <path d="m75.278 472.59 90.615-18.431" stroke="#eeeeec"/>
   </g>
   <g transform="translate(0,-100)">
    <path d="m75.278 472.59 90.615-18.431" stroke="#eeeeec"/>
    <path d="m75.278 472.59 90.615-18.431" stroke="#eeeeec"/>
    <path d="m75.278 472.59 90.615-18.431" stroke="#eeeeec"/>
    <path d="m75.278 472.59 90.615-18.431" stroke="#eeeeec"/>
    <path d="m75.274 472.59 90.403-19.152" stroke="#edebe6"/>
    <path d="m75.27 472.58 90.19-19.873" stroke="#ede8e0"/>
    <path d="m75.267 472.58 89.978-20.594" stroke="#ede6da"/>
    <path d="m75.263 472.57 89.766-21.315" stroke="#ede3d4"/>
    <path d="m75.259 472.57 89.554-22.036" stroke="#ece1ce"/>
    <path d="m75.256 472.57 89.342-22.758" stroke="#ecdec8"/>
    <path d="m75.252 472.56 89.13-23.479" stroke="#ecdcc2"/>
    <path d="m75.248 472.56 88.917-24.2" stroke="#ecd9bc"/>
    <path d="m75.244 472.55 88.705-24.921" stroke="#ebd7b6"/>
    <path d="m75.241 472.55 88.493-25.642" stroke="#ebd4b0"/>
    <path d="m75.237 472.54 88.281-26.364" stroke="#ebd2aa"/>
    <path d="m75.233 472.54 88.069-27.085" stroke="#ebcfa4"/>
    <path d="m75.23 472.54 87.857-27.806" stroke="#eacd9e"/>
    <path d="m75.226 472.53 87.644-28.527" stroke="#eaca98"/>
    <path d="m75.222 472.53 87.432-29.248" stroke="#eac892"/>
    <path d="m75.219 472.52 87.22-29.969" stroke="#eac58b"/>
    <path d="m75.215 472.52 87.008-30.691" stroke="#e9c385"/>
    <path d="m75.211 472.51 86.796-31.412" stroke="#e9c07f"/>
    <path d="m75.207 472.51 86.583-32.133" stroke="#e9be79"/>
    <path d="m75.204 472.5 86.371-32.854" stroke="#e9bb73"/>
    <path d="m75.2 472.5 86.159-33.575" stroke="#e9b96e"/>
    <path d="m75.2 472.5 86.159-33.575" stroke="#e9b96e"/>
    <path d="m75.2 472.5 86.159-33.575" stroke="#e9b96e"/>
    <path d="m75.2 472.5 86.159-33.575" stroke="#e9b96e"/>
   </g>
  </g>
  <path d="m119.44 462.56-25.469 9.9375 25.5 9.9375c2.4425-6.2875 2.5022-13.398-0.03125-19.875z"/>
  <path transform="matrix(1.0064 0 0 1.0064 -.60393 -3.0054)" d="m120.44 465.59-26.188 6.875 26.942-2.4058c-0.101-1.5138-0.40734-2.9966-0.75408-4.4692z" fill="#eeeeec" opacity=".5754"/>
 </g>
</svg>
